<svg width="500" height="500" viewBox="0 0 500 500" fill="none" xmlns="http://www.w3.org/2000/svg">
<g clip-path="url(#clip0)">
<g filter="url(#filter0_d)">
<path d="M232.222 130.772C259.229 62.8887 266.374 56.0611 363.292 58.3655C460.21 60.67 459.15 134.353 440.792 177.366C422.433 220.378 399.222 237.272 392.722 309.772C386.222 382.272 372.292 470.866 325.792 470.866C279.292 470.866 233.722 330.772 233.722 330.772" stroke="#0063A3" stroke-width="5" stroke-linecap="round" stroke-linejoin="round"/>
<path d="M425.5 87C409.5 66 383 68.5 383 68.5C433.15 75.5707 447.774 133.611 432.5 176.5C450.5 146 441.5 108 425.5 87Z" fill="white" stroke="#E5E5E5" stroke-width="0.5"/>
<path d="M237.222 144.772C212.712 79.0183 208.956 55.6184 104.73 58.3657C0.502968 61.113 8.87122 134.353 27.2296 177.366C45.5879 220.378 59.7296 238.366 66.2296 310.866C72.7296 383.366 95.7296 470.866 142.23 470.866C188.73 470.866 233.722 330.772 233.722 330.772" stroke="#0063A3" stroke-width="5" stroke-linecap="round" stroke-linejoin="round"/>
</g>
<path d="M136 209.001C136 251.501 166.5 293.001 232.5 293.001C298.5 293.001 324 249.001 324 209.001" stroke="black" stroke-width="5" stroke-linecap="round" stroke-linejoin="round"/>
<path d="M139 123.001C107 123.001 77.7215 155.132 72 193.001C89.0271 162.589 107 136.501 139 136.501C171 136.501 183.692 158.242 202.5 187.001C195.644 154.072 171 123.001 139 123.001Z" fill="black"/>
<path d="M327 123.001C298.5 123.001 272.5 150.001 263.5 187.001C263.5 187.001 277 136.501 327 136.501C377 136.501 387.5 192.501 387.5 192.501C387.5 156.501 355.5 123.001 327 123.001Z" fill="black"/>
<path d="M139 123.001C107 123.001 77.7215 155.132 72 193.001C89.0271 162.589 107 136.501 139 136.501C171 136.501 183.692 158.242 202.5 187.001C195.644 154.072 171 123.001 139 123.001Z" stroke="black" stroke-width="2" stroke-linecap="round" stroke-linejoin="round"/>
<path d="M327 123.001C298.5 123.001 272.5 150.001 263.5 187.001C263.5 187.001 277 136.501 327 136.501C377 136.501 387.5 192.501 387.5 192.501C387.5 156.501 355.5 123.001 327 123.001Z" stroke="black" stroke-width="2" stroke-linecap="round" stroke-linejoin="round"/>
<g filter="url(#filter1_d)">
<path d="M454.096 96.4202C452.181 97.6342 450.757 98.0958 450.757 98.0958C450.757 98.0958 452.062 97.3422 454.096 96.4202C457.029 94.5606 461.115 90.9357 463 84.5C465.974 74.3487 460.378 64.3577 459.86 63.4655C459.835 63.423 459.822 63.4009 459.822 63.4009C459.822 63.4009 459.835 63.4227 459.86 63.4655C460.392 64.3629 466.468 74.3519 474.898 77.1433C480.253 78.9162 486.797 76.6823 491.118 74.6494C493.716 72.9608 495.79 72.0958 495.79 72.0958C495.79 72.0958 493.922 73.3303 491.118 74.6494C487.177 77.2111 482.031 81.6681 481.095 87.8755C479.666 97.3475 484.864 106.786 485.708 108.241C485.783 108.367 485.822 108.434 485.822 108.434C485.822 108.434 485.782 108.368 485.708 108.241C484.779 106.688 478.303 96.2353 470.977 93.7169C465.637 91.8813 458.306 94.5117 454.096 96.4202Z" fill="white"/>
<path d="M450.757 98.0958C450.757 98.0958 459.884 95.1375 463 84.5C466.116 73.8625 459.822 63.4009 459.822 63.4009C459.822 63.4009 466.069 74.2198 474.898 77.1433C483.728 80.0667 495.79 72.0958 495.79 72.0958C495.79 72.0958 482.648 77.5764 481.095 87.8755C479.541 98.1745 485.822 108.434 485.822 108.434C485.822 108.434 478.897 96.4393 470.977 93.7169C463.057 90.9945 450.757 98.0958 450.757 98.0958Z" stroke="#333333" stroke-width="0.2"/>
</g>
<g filter="url(#filter2_d)">
<path d="M419.001 66.4932C417.454 67.4738 416.304 67.8466 416.304 67.8466C416.304 67.8466 417.358 67.238 419.001 66.4932C421.37 64.9913 424.669 62.0635 426.192 56.8654C428.594 48.6663 424.075 40.5966 423.656 39.876C423.636 39.8416 423.626 39.8238 423.626 39.8238C423.626 39.8238 423.636 39.8414 423.656 39.876C424.086 40.6008 428.993 48.6689 435.802 50.9234C440.128 52.3554 445.413 50.5511 448.903 48.9091C451.001 47.5453 452.677 46.8466 452.677 46.8466C452.677 46.8466 451.168 47.8437 448.903 48.9091C445.72 50.9782 441.564 54.5781 440.807 59.5917C439.653 67.2422 443.852 74.8658 444.533 76.0408C444.594 76.1424 444.626 76.1969 444.626 76.1969C444.626 76.1969 444.593 76.1434 444.533 76.0408C443.783 74.7867 438.553 66.3439 432.635 64.3098C428.322 62.8272 422.401 64.9517 419.001 66.4932Z" fill="white"/>
<path d="M416.304 67.8466C416.304 67.8466 423.675 65.4572 426.192 56.8654C428.709 48.2735 423.626 39.8238 423.626 39.8238C423.626 39.8238 428.671 48.5621 435.802 50.9234C442.934 53.2847 452.677 46.8466 452.677 46.8466C452.677 46.8466 442.062 51.2733 440.807 59.5917C439.552 67.9102 444.626 76.1969 444.626 76.1969C444.626 76.1969 439.032 66.5087 432.635 64.3098C426.238 62.1109 416.304 67.8466 416.304 67.8466Z" stroke="#333333" stroke-width="0.2"/>
</g>
<g filter="url(#filter3_d)">
<path d="M456.905 142.566C455.727 143.313 454.85 143.597 454.85 143.597C454.85 143.597 455.654 143.134 456.905 142.566C458.71 141.422 461.224 139.191 462.385 135.231C464.215 128.984 460.771 122.835 460.452 122.286C460.437 122.26 460.429 122.247 460.429 122.247C460.429 122.247 460.437 122.26 460.452 122.286C460.78 122.839 464.519 128.986 469.707 130.704C473.002 131.795 477.029 130.42 479.688 129.169C481.287 128.13 482.563 127.597 482.563 127.597C482.563 127.597 481.414 128.357 479.688 129.169C477.263 130.745 474.096 133.488 473.52 137.308C472.64 143.137 475.839 148.945 476.359 149.841C476.405 149.918 476.429 149.96 476.429 149.96C476.429 149.96 476.404 149.919 476.359 149.841C475.787 148.885 471.802 142.452 467.294 140.903C464.007 139.773 459.496 141.392 456.905 142.566Z" fill="white"/>
<path d="M454.85 143.597C454.85 143.597 460.467 141.777 462.385 135.231C464.302 128.685 460.429 122.247 460.429 122.247C460.429 122.247 464.273 128.904 469.707 130.704C475.14 132.503 482.563 127.597 482.563 127.597C482.563 127.597 474.476 130.97 473.52 137.308C472.564 143.646 476.429 149.96 476.429 149.96C476.429 149.96 472.167 142.578 467.294 140.903C462.42 139.227 454.85 143.597 454.85 143.597Z" stroke="#333333" stroke-width="0.2"/>
</g>
</g>
<defs>
<filter id="filter0_d" x="9.49951" y="51.4999" width="455.476" height="433.866" filterUnits="userSpaceOnUse" color-interpolation-filters="sRGB">
<feFlood flood-opacity="0" result="BackgroundImageFix"/>
<feColorMatrix in="SourceAlpha" type="matrix" values="0 0 0 0 0 0 0 0 0 0 0 0 0 0 0 0 0 0 127 0"/>
<feOffset dx="4" dy="4"/>
<feGaussianBlur stdDeviation="4"/>
<feColorMatrix type="matrix" values="0 0 0 0 0 0 0 0 0 0 0 0 0 0 0 0 0 0 0.3 0"/>
<feBlend mode="normal" in2="BackgroundImageFix" result="effect1_dropShadow"/>
<feBlend mode="normal" in="SourceGraphic" in2="effect1_dropShadow" result="shape"/>
</filter>
<filter id="filter1_d" x="388.081" y="0.0920044" width="171.065" height="171.054" filterUnits="userSpaceOnUse" color-interpolation-filters="sRGB">
<feFlood flood-opacity="0" result="BackgroundImageFix"/>
<feColorMatrix in="SourceAlpha" type="matrix" values="0 0 0 0 0 0 0 0 0 0 0 0 0 0 0 0 0 0 127 0"/>
<feOffset dx="0.1" dy="0.1"/>
<feGaussianBlur stdDeviation="25"/>
<feColorMatrix type="matrix" values="0 0 0 0 0 0 0 0 0 0 0 0 0 0 0 0 0 0 0.2 0"/>
<feBlend mode="normal" in2="BackgroundImageFix" result="effect1_dropShadow"/>
<feBlend mode="normal" in="SourceGraphic" in2="effect1_dropShadow" result="shape"/>
</filter>
<filter id="filter2_d" x="356.081" y="-20.908" width="157.404" height="157.394" filterUnits="userSpaceOnUse" color-interpolation-filters="sRGB">
<feFlood flood-opacity="0" result="BackgroundImageFix"/>
<feColorMatrix in="SourceAlpha" type="matrix" values="0 0 0 0 0 0 0 0 0 0 0 0 0 0 0 0 0 0 127 0"/>
<feOffset dx="0.1" dy="0.1"/>
<feGaussianBlur stdDeviation="25"/>
<feColorMatrix type="matrix" values="0 0 0 0 0 0 0 0 0 0 0 0 0 0 0 0 0 0 0.2 0"/>
<feBlend mode="normal" in2="BackgroundImageFix" result="effect1_dropShadow"/>
<feBlend mode="normal" in="SourceGraphic" in2="effect1_dropShadow" result="shape"/>
</filter>
<filter id="filter3_d" x="397.081" y="64.092" width="143.744" height="143.733" filterUnits="userSpaceOnUse" color-interpolation-filters="sRGB">
<feFlood flood-opacity="0" result="BackgroundImageFix"/>
<feColorMatrix in="SourceAlpha" type="matrix" values="0 0 0 0 0 0 0 0 0 0 0 0 0 0 0 0 0 0 127 0"/>
<feOffset dx="0.1" dy="0.1"/>
<feGaussianBlur stdDeviation="25"/>
<feColorMatrix type="matrix" values="0 0 0 0 0 0 0 0 0 0 0 0 0 0 0 0 0 0 0.2 0"/>
<feBlend mode="normal" in2="BackgroundImageFix" result="effect1_dropShadow"/>
<feBlend mode="normal" in="SourceGraphic" in2="effect1_dropShadow" result="shape"/>
</filter>
<clipPath id="clip0">
<rect width="500" height="500" fill="white"/>
</clipPath>
</defs>
</svg>
